<?xml version="1.0" standalone="no"?>
<!DOCTYPE svg PUBLIC "-//W3C//DTD SVG 20010904//EN"
 "http://www.w3.org/TR/2001/REC-SVG-20010904/DTD/svg10.dtd">
<svg version="1.0" xmlns="http://www.w3.org/2000/svg"
 width="16.000000pt" height="16.000000pt" viewBox="0 0 16.000000 16.000000"
 preserveAspectRatio="xMidYMid meet">
<metadata>
Created by potrace 1.11, written by Peter Selinger 2001-2013
</metadata>
<g transform="translate(0.000000,16.000000) scale(0.002941,-0.002941)"
fill="#000000" stroke="none">
<path d="M2340 4505 l0 -924 -72 -42 c-40 -23 -86 -50 -103 -59 l-30 -18 -310
180 c-170 99 -328 189 -350 201 -22 13 -51 30 -65 38 -14 9 -149 87 -300 174
-151 87 -288 166 -305 175 -16 10 -85 50 -152 88 l-122 70 -122 -212 c-67
-116 -133 -231 -147 -256 -13 -25 -28 -49 -32 -55 -3 -5 -19 -31 -33 -57 l-27
-46 68 -39 c37 -21 75 -42 84 -48 9 -5 29 -17 45 -26 15 -8 102 -58 193 -111
284 -164 494 -285 530 -305 153 -86 667 -386 675 -394 5 -6 10 -61 10 -124 l0
-114 -60 -34 c-33 -19 -175 -101 -315 -182 -140 -81 -334 -192 -430 -248 -96
-55 -211 -121 -255 -147 -44 -26 -184 -107 -311 -180 l-232 -133 26 -46 c14
-25 36 -63 49 -83 12 -21 23 -40 23 -44 0 -3 8 -18 18 -32 11 -15 33 -52 49
-82 17 -30 67 -119 112 -197 l82 -142 37 21 c128 71 512 293 534 309 15 11 30
19 33 19 4 0 45 23 93 51 48 29 103 61 122 72 19 10 91 52 160 92 163 95 433
251 490 283 25 14 62 36 82 49 47 29 59 29 106 0 20 -13 44 -27 52 -30 8 -4
33 -18 55 -31 l40 -24 5 -927 5 -928 353 1 c195 0 356 2 358 5 3 3 5 419 5
926 l-1 921 37 20 c21 11 47 26 58 33 63 39 96 57 110 57 8 0 47 -19 87 -43
40 -24 80 -46 88 -50 8 -4 31 -17 50 -28 50 -30 383 -224 529 -308 68 -39 127
-71 132 -71 5 0 9 -4 9 -10 0 -5 4 -10 9 -10 5 0 42 -19 83 -43 40 -24 93 -55
118 -69 34 -19 457 -264 491 -284 7 -4 169 268 342 576 l28 49 -38 20 c-21 11
-52 28 -69 38 -104 60 -189 110 -207 120 -12 7 -76 43 -142 81 -151 88 -603
348 -664 383 -184 105 -463 268 -473 277 -9 7 -13 41 -12 116 1 58 2 110 3
116 1 8 59 45 171 108 25 14 61 34 80 45 102 59 143 83 158 92 9 6 60 34 112
64 52 30 127 73 165 96 39 23 95 55 125 72 30 17 96 54 145 83 92 54 100 58
240 138 44 25 88 52 98 60 9 8 17 12 17 8 0 -4 12 1 28 12 15 11 80 49 145 86
64 37 115 71 113 74 -2 4 -81 142 -176 307 -95 165 -174 303 -177 307 -2 4
-22 -4 -43 -17 -22 -14 -42 -25 -44 -25 -3 0 -57 -31 -122 -70 -64 -38 -119
-70 -121 -70 -2 0 -48 -26 -101 -57 -53 -32 -113 -67 -133 -78 -164 -93 -315
-180 -319 -185 -3 -3 -14 -10 -25 -16 -28 -15 -217 -123 -235 -134 -13 -9
-309 -179 -425 -245 -45 -26 -31 -30 -173 53 l-72 43 0 912 c1 502 1 918 0
925 0 9 -79 12 -360 12 l-360 0 0 -925z m461 -1004 c0 -14 1 -139 1 -277 l0
-252 33 -18 c32 -17 36 -17 67 -1 18 9 40 21 48 27 8 6 101 60 205 120 217
125 190 125 257 2 l37 -69 -62 -35 c-34 -19 -142 -81 -239 -138 l-178 -102 0
-38 0 -38 238 -137 c130 -76 238 -139 240 -140 1 -1 -20 -41 -48 -89 l-51 -86
-77 41 c-42 23 -81 45 -87 49 -15 12 -307 180 -313 180 -2 0 -19 -7 -37 -16
l-33 -15 -1 -247 c0 -136 0 -261 0 -278 l-1 -31 -100 -2 -100 -1 0 277 0 278
-31 18 c-17 9 -34 17 -39 17 -4 0 -86 -46 -181 -102 -96 -55 -187 -108 -204
-116 -16 -8 -43 -24 -59 -35 l-29 -20 -16 22 c-9 11 -32 52 -53 89 l-36 67
236 136 237 136 3 40 3 41 -173 100 c-95 55 -189 109 -208 119 -19 11 -49 29
-67 39 l-31 20 49 84 c27 47 54 84 60 82 6 -1 112 -61 235 -132 123 -72 229
-130 235 -130 6 0 24 8 40 17 l29 17 0 276 0 277 100 0 100 0 1 -26z"/>
</g>
</svg>
